<svg xmlns="http://www.w3.org/2000/svg" width="1200" height="630" viewBox="0 0 1200 630" role="img" aria-label="ই-কমার্সের জন্য AI টুলস — বাংলাদেশি উদ্যোক্তাদের গাইড ২০২৬ | বাংলা AI গাইড">
  <defs>
    <linearGradient id="bg" x1="0" y1="0" x2="1" y2="1">
      <stop offset="0%" stop-color="#F59E0B"/>
      <stop offset="100%" stop-color="#FB923C"/>
    </linearGradient>
    <radialGradient id="glow1" cx="0.9" cy="0.15" r="0.55">
      <stop offset="0%" stop-color="#FFFFFF" stop-opacity="0.28"/>
      <stop offset="100%" stop-color="#FFFFFF" stop-opacity="0"/>
    </radialGradient>
    <radialGradient id="glow2" cx="0.05" cy="0.95" r="0.55">
      <stop offset="0%" stop-color="#FB7185" stop-opacity="0.4"/>
      <stop offset="100%" stop-color="#FB7185" stop-opacity="0"/>
    </radialGradient>
    <style>
      <![CDATA[
      @import url('https://fonts.googleapis.com/css2?family=Hind+Siliguri:wght@600;700;800&family=Syne:wght@700;800&display=swap');
      .title { font-family: 'Hind Siliguri', 'Noto Sans Bengali', 'SolaimanLipi', sans-serif; font-weight: 800; fill: #FFFFFF; }
      .badge { font-family: 'Syne', 'Hind Siliguri', sans-serif; font-weight: 800; letter-spacing: 2px; fill: #F59E0B; }
      .brand { font-family: 'Syne', 'Hind Siliguri', sans-serif; font-weight: 700; fill: #FFFFFF; opacity: 0.85; letter-spacing: 1px; }
      .brand-main { font-family: 'Hind Siliguri', 'Noto Sans Bengali', sans-serif; font-weight: 700; fill: #FFFFFF; }
      .url { font-family: 'Syne', sans-serif; font-weight: 600; fill: #FFFFFF; opacity: 0.8; letter-spacing: 1px; }
      ]]>
    </style>
  </defs>

  <rect width="1200" height="630" fill="url(#bg)"/>
  <rect width="1200" height="630" fill="url(#glow1)"/>
  <rect width="1200" height="630" fill="url(#glow2)"/>

  <circle cx="1080" cy="80" r="200" fill="#FFFFFF" opacity="0.06"/>
  <circle cx="1140" cy="540" r="240" fill="#FFFFFF" opacity="0.05"/>
  <circle cx="50" cy="600" r="140" fill="#FB7185" opacity="0.12"/>

  <g fill="#FFFFFF" opacity="0.22">
    <circle cx="900" cy="55" r="3"/>
    <circle cx="930" cy="55" r="3"/>
    <circle cx="960" cy="55" r="3"/>
    <circle cx="900" cy="85" r="2"/>
    <circle cx="930" cy="85" r="2"/>
    <circle cx="900" cy="115" r="2"/>
  </g>

  <g transform="translate(760, 135)">
    
    <g>
      <rect x="30" y="200" width="50" height="120" rx="6" fill="#FFFFFF" opacity="0.75"/>
      <rect x="100" y="160" width="50" height="160" rx="6" fill="#FFFFFF" opacity="0.88"/>
      <rect x="170" y="100" width="50" height="220" rx="6" fill="#FFFFFF"/>
      <rect x="240" y="60" width="50" height="260" rx="6" fill="#FB7185"/>
      <path d="M 55 195 Q 130 100 195 95 T 265 65" stroke="#FFFFFF" stroke-width="4" fill="none" stroke-dasharray="6,5"/>
      <circle cx="55" cy="195" r="7" fill="#FFFFFF"/>
      <circle cx="265" cy="65" r="9" fill="#FB7185" stroke="#FFFFFF" stroke-width="3"/>
    </g>
  </g>

  <g transform="translate(70, 70)">
    <rect x="0" y="0" rx="20" ry="20" width="124" height="40" fill="#FFFFFF"/>
    <text x="62" y="27" font-size="14" text-anchor="middle" class="badge">BUSINESS</text>
  </g>

  <text class="title" font-size="46"><tspan x="70" y="211">ই-কমার্সের জন্য AI</tspan><tspan x="70" y="267">টুলস — বাংলাদেশি</tspan><tspan x="70" y="323">উদ্যোক্তাদের গাইড ২০২৬</tspan><tspan x="70" y="379">| বাংলা AI গাইড</tspan></text>

  <circle cx="70" cy="555" r="4" fill="#FB7185"/>
  <circle cx="86" cy="555" r="4" fill="#FFFFFF" opacity="0.6"/>
  <circle cx="102" cy="555" r="4" fill="#FFFFFF" opacity="0.3"/>

  <g transform="translate(70, 575)">
    <text x="0" y="0" font-size="22" class="brand-main">বাংলা AI গাইড</text>
    <text x="0" y="22" font-size="13" class="brand">BANGLADESH&apos;S AI TOOLS DIRECTORY</text>
  </g>

  <text x="1130" y="595" font-size="16" text-anchor="end" class="url">banglaaiguide.com</text>
</svg>