<svg width="640" height="520" viewBox="0 0 640 520" fill="none" xmlns="http://www.w3.org/2000/svg">
  <defs>
    <linearGradient id="bg" x1="88" y1="40" x2="564" y2="454" gradientUnits="userSpaceOnUse">
      <stop stop-color="#ECFDF5"/>
      <stop offset="1" stop-color="#E0F2FE"/>
    </linearGradient>
    <linearGradient id="card" x1="184" y1="96" x2="474" y2="390" gradientUnits="userSpaceOnUse">
      <stop stop-color="#FFFFFF"/>
      <stop offset="1" stop-color="#F8FAFC"/>
    </linearGradient>
    <linearGradient id="signal" x1="0" y1="0" x2="1" y2="1">
      <stop stop-color="#10B981"/>
      <stop offset="1" stop-color="#0EA5E9"/>
    </linearGradient>
    <filter id="shadow" x="112" y="54" width="400" height="378" filterUnits="userSpaceOnUse" color-interpolation-filters="sRGB">
      <feFlood flood-opacity="0" result="BackgroundImageFix"/>
      <feColorMatrix in="SourceAlpha" type="matrix" values="0 0 0 0 0 0 0 0 0 0 0 0 0 0 0 0 0 0 127 0" result="hardAlpha"/>
      <feOffset dy="12"/>
      <feGaussianBlur stdDeviation="18"/>
      <feComposite in2="hardAlpha" operator="out"/>
      <feColorMatrix type="matrix" values="0 0 0 0 0.0588235 0 0 0 0 0.0941176 0 0 0 0 0.164706 0 0 0 0.12 0"/>
      <feBlend mode="normal" in2="BackgroundImageFix" result="effect1_dropShadow_1_1"/>
      <feBlend mode="normal" in="SourceGraphic" in2="effect1_dropShadow_1_1" result="shape"/>
    </filter>
  </defs>
  <rect width="640" height="520" rx="36" fill="#F8FAFC"/>
  <circle cx="112" cy="98" r="64" fill="#DCFCE7"/>
  <circle cx="540" cy="414" r="70" fill="#DBEAFE"/>
  <path d="M97 120C174 62 271 33 398 52C485 65 545 114 567 200C591 294 560 365 482 418C418 462 334 480 247 462C160 444 99 400 69 326C42 262 50 178 97 120Z" fill="url(#bg)"/>
  <g filter="url(#shadow)">
    <rect x="148" y="78" width="328" height="306" rx="28" fill="url(#card)"/>
    <rect x="176" y="110" width="120" height="14" rx="7" fill="#E5E7EB"/>
    <rect x="176" y="138" width="188" height="14" rx="7" fill="#E5E7EB"/>
    <rect x="176" y="178" width="272" height="108" rx="20" fill="#0F172A"/>
    <path d="M208 238L246 202L288 234L336 188L404 246" stroke="url(#signal)" stroke-width="10" stroke-linecap="round" stroke-linejoin="round"/>
    <circle cx="246" cy="202" r="8" fill="#34D399"/>
    <circle cx="288" cy="234" r="8" fill="#22C55E"/>
    <circle cx="336" cy="188" r="8" fill="#14B8A6"/>
    <circle cx="404" cy="246" r="8" fill="#38BDF8"/>
    <rect x="176" y="306" width="128" height="20" rx="10" fill="#D1FAE5"/>
    <rect x="176" y="340" width="86" height="12" rx="6" fill="#E5E7EB"/>
    <rect x="274" y="340" width="118" height="12" rx="6" fill="#E5E7EB"/>
    <rect x="404" y="306" width="44" height="44" rx="14" fill="#ECFDF5"/>
    <path d="M419 328H433" stroke="#059669" stroke-width="6" stroke-linecap="round"/>
    <path d="M426 321V335" stroke="#059669" stroke-width="6" stroke-linecap="round"/>
  </g>
  <g>
    <rect x="80" y="330" width="156" height="88" rx="22" fill="#111827"/>
    <text x="104" y="364" fill="#FFFFFF" font-family="Arial, sans-serif" font-size="20" font-weight="700">VPN</text>
    <text x="104" y="392" fill="#86EFAC" font-family="Arial, sans-serif" font-size="28" font-weight="800">Not Needed</text>
  </g>
  <g>
    <rect x="430" y="102" width="140" height="92" rx="22" fill="#FFFFFF"/>
    <text x="452" y="136" fill="#0F172A" font-family="Arial, sans-serif" font-size="18" font-weight="700">BDT Ready</text>
    <text x="452" y="168" fill="#059669" font-family="Arial, sans-serif" font-size="26" font-weight="800">Price Guide</text>
  </g>
  <g>
    <rect x="452" y="330" width="120" height="92" rx="22" fill="#FFFFFF"/>
    <text x="474" y="364" fill="#0F172A" font-family="Arial, sans-serif" font-size="17" font-weight="700">AI Stack</text>
    <circle cx="486" cy="392" r="8" fill="#10B981"/>
    <circle cx="514" cy="392" r="8" fill="#3B82F6"/>
    <circle cx="542" cy="392" r="8" fill="#F59E0B"/>
    <text x="474" y="414" fill="#475569" font-family="Arial, sans-serif" font-size="15" font-weight="600">LLM + Image + Code</text>
  </g>
</svg>
