<svg xmlns="http://www.w3.org/2000/svg" width="1200" height="630" viewBox="0 0 1200 630" role="img" aria-label="বাংলাদেশে VPN ছাড়া AI টুলস: সহজ অ্যাক্সেস এবং আয়ের সুযোগ">
  <defs>
    <linearGradient id="bg" x1="0" y1="0" x2="1" y2="1">
      <stop offset="0%" stop-color="#0891B2"/>
      <stop offset="100%" stop-color="#22D3EE"/>
    </linearGradient>
    <radialGradient id="glow1" cx="0.9" cy="0.15" r="0.55">
      <stop offset="0%" stop-color="#FFFFFF" stop-opacity="0.28"/>
      <stop offset="100%" stop-color="#FFFFFF" stop-opacity="0"/>
    </radialGradient>
    <radialGradient id="glow2" cx="0.05" cy="0.95" r="0.55">
      <stop offset="0%" stop-color="#A3E635" stop-opacity="0.4"/>
      <stop offset="100%" stop-color="#A3E635" stop-opacity="0"/>
    </radialGradient>
    <style>
      <![CDATA[
      @import url('https://fonts.googleapis.com/css2?family=Hind+Siliguri:wght@600;700;800&family=Syne:wght@700;800&display=swap');
      .title { font-family: 'Hind Siliguri', 'Noto Sans Bengali', 'SolaimanLipi', sans-serif; font-weight: 800; fill: #FFFFFF; }
      .badge { font-family: 'Syne', 'Hind Siliguri', sans-serif; font-weight: 800; letter-spacing: 2px; fill: #0891B2; }
      .brand { font-family: 'Syne', 'Hind Siliguri', sans-serif; font-weight: 700; fill: #FFFFFF; opacity: 0.85; letter-spacing: 1px; }
      .brand-main { font-family: 'Hind Siliguri', 'Noto Sans Bengali', sans-serif; font-weight: 700; fill: #FFFFFF; }
      .url { font-family: 'Syne', sans-serif; font-weight: 600; fill: #FFFFFF; opacity: 0.8; letter-spacing: 1px; }
      ]]>
    </style>
  </defs>

  <rect width="1200" height="630" fill="url(#bg)"/>
  <rect width="1200" height="630" fill="url(#glow1)"/>
  <rect width="1200" height="630" fill="url(#glow2)"/>

  <circle cx="1080" cy="80" r="200" fill="#FFFFFF" opacity="0.06"/>
  <circle cx="1140" cy="540" r="240" fill="#FFFFFF" opacity="0.05"/>
  <circle cx="50" cy="600" r="140" fill="#A3E635" opacity="0.12"/>

  <g fill="#FFFFFF" opacity="0.22">
    <circle cx="900" cy="55" r="3"/>
    <circle cx="930" cy="55" r="3"/>
    <circle cx="960" cy="55" r="3"/>
    <circle cx="900" cy="85" r="2"/>
    <circle cx="930" cy="85" r="2"/>
    <circle cx="900" cy="115" r="2"/>
  </g>

  <g transform="translate(760, 135)">
    
    <g>
      <circle cx="160" cy="170" r="92" fill="#FFFFFF" opacity="0.28"/>
      <circle cx="160" cy="170" r="92" fill="none" stroke="#FFFFFF" stroke-width="4"/>
      <ellipse cx="160" cy="170" rx="42" ry="92" fill="none" stroke="#FFFFFF" stroke-width="3"/>
      <line x1="68" y1="170" x2="252" y2="170" stroke="#FFFFFF" stroke-width="3"/>
      <line x1="160" y1="78" x2="160" y2="262" stroke="#FFFFFF" stroke-width="3"/>
      <circle cx="280" cy="270" r="38" fill="#A3E635"/>
      <path d="M 262 270 L 274 282 L 296 258" stroke="#FFFFFF" stroke-width="6" fill="none" stroke-linecap="round" stroke-linejoin="round"/>
    </g>
  </g>

  <g transform="translate(70, 70)">
    <rect x="0" y="0" rx="20" ry="20" width="102" height="40" fill="#FFFFFF"/>
    <text x="51" y="27" font-size="14" text-anchor="middle" class="badge">ACCESS</text>
  </g>

  <text class="title" font-size="46"><tspan x="70" y="239">বাংলাদেশে VPN ছাড়া AI</tspan><tspan x="70" y="295">টুলস: সহজ অ্যাক্সেস</tspan><tspan x="70" y="351">এবং আয়ের সুযোগ</tspan></text>

  <circle cx="70" cy="555" r="4" fill="#A3E635"/>
  <circle cx="86" cy="555" r="4" fill="#FFFFFF" opacity="0.6"/>
  <circle cx="102" cy="555" r="4" fill="#FFFFFF" opacity="0.3"/>

  <g transform="translate(70, 575)">
    <text x="0" y="0" font-size="22" class="brand-main">বাংলা AI গাইড</text>
    <text x="0" y="22" font-size="13" class="brand">BANGLADESH&apos;S AI TOOLS DIRECTORY</text>
  </g>

  <text x="1130" y="595" font-size="16" text-anchor="end" class="url">banglaaiguide.com</text>
</svg>